<svg xmlns="http://www.w3.org/2000/svg" viewBox="0 0 142.08 48.95"><path fill="#0078ff" d="M135.23 16.32h6.43a.22.22 0 0 1 .24.24v2.59a.22.22 0 0 1-.24.23h-9.47a.23.22 0 0 1-.23-.23V5.82a.22.22 0 0 1 .23-.23h2.8a.22.22 0 0 1 .23.23zm-6.6-5.4a.22.22 0 0 1 .23.24v2.56a.22.22 0 0 1-.24.23h-6.18v2.39h6.55a.22.22 0 0 1 .24.23v2.59a.22.22 0 0 1-.24.23h-9.58a.22.22 0 0 1-.24-.23V5.82a.22.22 0 0 1 .24-.23h9.58a.22.22 0 0 1 .24.23v2.59a.22.22 0 0 1-.24.23h-6.55v2.28zm-24.12 3.02v-8.1a.22.22 0 0 1 .23-.24h2.8a.22.22 0 0 1 .23.23v8.1a2.69 2.64 0 1 0 5.37 0v-8.1a.22.22 0 0 1 .23-.23h2.8a.22.22 0 0 1 .24.23v8.1c0 3.39-2.43 5.7-5.95 5.7s-5.96-2.31-5.96-5.7m-9.17 2.39a3.9 3.84 0 0 0 0-7.68h-4.98a.22.22 0 0 1-.23-.23V5.82a.23.22 0 0 1 .23-.23h4.98a7 6.9 0 1 1 0 13.78h-4.98a.23.22 0 0 1-.23-.23V12.7a2.8 2.76 0 0 1 .78-2.02 2.66 2.62 0 0 1 1.77-.73h.48a.22.22 0 0 1 .24.23v6.15zM75.46 5.82a.22.22 0 0 1 .23-.23h3.26a.37.36 0 0 1 .35.2l4.87 8.16V5.82a.23.22 0 0 1 .24-.23h2.74a.22.22 0 0 1 .23.23v13.32a.22.22 0 0 1-.23.23h-3.22a.37.36 0 0 1-.36-.2l-4.9-8.22v8.2a.22.22 0 0 1-.24.23h-2.74a.22.22 0 0 1-.24-.23zm-6.82 7.64L66.97 8.7l-1.67 4.76zM64.8 5.82a.31.3 0 0 1 .31-.22h3.76a.3.3 0 0 1 .31.22l4.91 13.3a.2.2 0 0 1-.19.26h-2.96a.3.3 0 0 1-.31-.22l-.94-2.69h-5.42l-.94 2.69a.3.3 0 0 1-.3.22h-2.94a.2.2 0 0 1-.18-.25l4.9-13.31zm-14.21.01a.22.22 0 0 1 .23-.23H61.4a.2.2 0 0 1 .19.26l-.95 2.58a.31.3 0 0 1-.32.21h-6.48v2.8h5.4a.2.2 0 0 1 .2.26l-.94 2.53a.3.3 0 0 1-.31.22h-4.34v4.7a.22.22 0 0 1-.23.22h-2.8a.22.22 0 0 1-.23-.23zM22.2 7.2a.37.37 0 0 1-.33-.48A47.5 46.8 0 0 1 24.5.56a.53.52 0 0 1 .59-.29 40.72 40.11 0 0 1 15.28 4.85.75.74 0 0 1 .4.74A40.98 40.37 0 0 1 23 38.7a.37.37 0 0 1-.57-.17 48.95 48.22 0 0 1-1.94-6.38.6.6 0 0 1 .22-.66A33.6 33.1 0 0 0 33.25 9.66 33.65 33.15 0 0 0 22.21 7.2M8.77 15.35a27.99 27.57 0 0 1 8.36-2.32c.3-.04.43.17.4.4a53.22 52.43 0 0 0-.7 6.45.48.47 0 0 1-.43.47 20.98 20.67 0 0 0-4.74 1.52 33.85 33.35 0 0 0 5.32 6.9 1.57 1.54 0 0 1 .43.89 50.53 49.78 0 0 0 2.65 9.8q.11.26-.03.4a.4.4 0 0 1-.46 0A40.98 40.37 0 0 1 0 5.86a.78.77 0 0 1 .4-.74A41.06 40.45 0 0 1 21.35.02a.36.35 0 0 1 .32.54 45.6 44.92 0 0 0-2.5 6.23.5.48 0 0 1-.5.38A33.72 33.22 0 0 0 7.53 9.65a35.25 34.72 0 0 0 1.24 5.68" data-name="Path 63689"/><path fill="#0078ff" d="M56.29 29.37c0 1.58-1.43 2.2-2.74 2.2-2.07 0-2.97-1.11-3.17-2.37h1.2c.22.83.78 1.27 1.95 1.27.99 0 1.55-.38 1.55-1.06s-.6-.79-1.96-1.08c-1.43-.31-2.55-.7-2.55-2.07 0-1.44 1.3-2.2 2.7-2.2 1.85 0 2.7.95 2.91 2.1h-1.2a1.58 1.55 0 0 0-1.7-1c-1 0-1.53.44-1.53 1.07 0 .52.42.69 1.64.94 1.86.4 2.88.8 2.88 2.18" data-name="Path 63690"/><path fill="#0078ff" d="M60.11 27.87a1.3 1.28 0 1 0 0-2.55h-1.79v2.55zm-2.97 3.58V24.2h3a2.34 2.3 0 0 1 2.6 2.38 2.36 2.33 0 0 1-2.6 2.42h-1.82v2.45z" data-name="Path 63691"/><path fill="#0078ff" d="M64.45 27.82a2.61 2.57 0 1 0 2.62-2.63 2.58 2.54 0 0 0-2.62 2.63m6.44 0a3.82 3.76 0 1 1-3.82-3.75 3.74 3.69 0 0 1 3.82 3.75" data-name="Path 63692"/><path fill="#0078ff" d="M74.67 27.72c.98 0 1.43-.5 1.43-1.21s-.46-1.19-1.43-1.19h-1.72v2.39zm-2.9-3.52h3.03a2.24 2.2 0 0 1 2.5 2.3 2.1 2.07 0 0 1-1.85 2.18l2.2 2.77h-1.47l-2.1-2.7h-1.14v2.7h-1.19V24.2z" data-name="Path 63693"/><path fill="#0078ff" d="M83.19 25.32h-2.24v6.13h-1.2v-6.14h-2.23V24.2h5.67z" data-name="Path 63694"/><path fill="#0078ff" d="M89.29 29.37c0 1.58-1.43 2.2-2.74 2.2-2.07 0-2.97-1.11-3.16-2.37h1.2c.21.83.78 1.27 1.95 1.27.99 0 1.55-.38 1.55-1.06s-.6-.79-1.96-1.08c-1.43-.31-2.55-.7-2.55-2.07 0-1.44 1.3-2.2 2.7-2.2 1.85 0 2.7.95 2.91 2.1h-1.2a1.57 1.55 0 0 0-1.7-1c-1 0-1.53.44-1.53 1.07 0 .52.42.69 1.64.94 1.86.4 2.88.8 2.88 2.18" data-name="Path 63695"/><path fill="#0078ff" d="m97.71 29.8-.1-2.57V24.2h1.18v7.25h-1.4l-3.68-5.6.11 2.56v3.04h-1.19V24.2h1.4z" data-name="Path 63696"/><path fill="#0078ff" d="M104.53 25.32h-3.6v1.87h3.36v1.12h-3.36v2.02h3.61v1.12h-4.8V24.2h4.8z" data-name="Path 63697"/><path fill="#0078ff" d="M110.65 25.32h-2.25v6.13h-1.19v-6.14h-2.24V24.2h5.68z" data-name="Path 63698"/><path fill="#0078ff" d="M119.13 31.45h-1.47l-.7-2.62-.71-3.24h-.2l-.7 3.24-.7 2.62h-1.5l-1.96-7.25h1.22l.94 3.47.55 2.55.56-2.55.92-3.47h1.52l.93 3.47.56 2.57.56-2.57.92-3.47h1.22z" data-name="Path 63699"/><path fill="#0078ff" d="M122.33 27.82a2.61 2.57 0 1 0 2.61-2.63 2.58 2.54 0 0 0-2.61 2.63m6.43 0a3.82 3.76 0 1 1-3.82-3.75 3.74 3.69 0 0 1 3.82 3.75" data-name="Path 63700"/><path fill="#0078ff" d="M132.54 27.72c.98 0 1.44-.5 1.44-1.21s-.47-1.19-1.44-1.19h-1.72v2.39zm-2.9-3.52h3.03a2.24 2.2 0 0 1 2.5 2.3 2.1 2.06 0 0 1-1.85 2.18l2.2 2.77h-1.47l-2.09-2.7h-1.15v2.7h-1.19V24.2z" data-name="Path 63701"/><path fill="#0078ff" d="m138.65 27.72 3.33 3.73h-1.5l-3.1-3.46v3.46h-1.2V24.2h1.2v3.3l2.97-3.3h1.48z" data-name="Path 63702"/><path fill="#0078ff" d="M123.62 48.83h-1.4l-.67-2.47-.68-3.07h-.18l-.67 3.07-.66 2.47h-1.43l-1.85-6.86h1.16l.88 3.29.52 2.41.54-2.41.87-3.3h1.43l.88 3.3.54 2.43.53-2.43.87-3.3h1.16z" data-name="Path 63703"/><path fill="#0078ff" d="M130.64 43.02h-3.42v1.78h3.17v1.06h-3.17v1.91h3.42v1.06h-4.55v-6.86h4.55z" data-name="Path 63704"/><path fill="#0078ff" d="M136.57 46.87c0 1.5-1.36 2.08-2.6 2.08-1.95 0-2.8-1.06-3-2.24h1.13c.21.8.75 1.2 1.85 1.2.94 0 1.48-.36 1.48-1 0-.63-.57-.74-1.86-1.02-1.36-.3-2.42-.67-2.42-1.96 0-1.36 1.23-2.07 2.56-2.07 1.75 0 2.56.89 2.75 1.98h-1.13a1.5 1.47 0 0 0-1.6-.94c-.94 0-1.45.41-1.45 1.01 0 .5.4.65 1.55.9 1.76.38 2.72.73 2.72 2.06" data-name="Path 63705"/><path fill="#0078ff" d="M142.08 43.02h-2.15v5.81h-1.12v-5.8h-2.12v-1.06h5.38z" data-name="Path 63706"/><path fill="#0078ff" d="M141.9 36.26H50.59v.89h91.3z" data-name="Path 63707"/></svg>