<svg xmlns="http://www.w3.org/2000/svg" viewBox="0 0 237.84 190.38"><title>KTVK logo</title><desc>Independent television station in Phoenix, Arizona and surrounding area owned by Gray Television</desc><path fill="#f68313" d="M134.35 7.94S173.09-.94 190.08.08s22.08 12.3 27.18 20.5 18.01 33.84 20.05 74.17c0 0 1.7 15.03-1.02 34.51s-7.48 29.05-22.43 37.26-60.82 18.45-103.64 22.55c-42.8 4.1-78.83-2.74-78.83-2.74s-19.89-2.92-25.21-11.85c0 0-3.55-4.91-5.03-12.76-1.22-6.45-2.72-33.82 2.72-58.77 5.43-24.96 11.89-40.33 14.26-45.8 2.39-5.47 8.26-12.87 14.96-16.4 5.26-2.78 66.26-27.34 101.27-32.81"/><path fill="#fab22e" d="M133.31 10.63s37.7-7.67 54.24-6.7c16.53.95 21.78 9.25 26.74 16.92 4.96 7.66 16.3 33.04 18.28 70.74 0 0 .96 14.96-1.7 33.18-2.64 18.21-6.77 25.5-21.32 33.17s-59.2 19.87-100.87 23.7-77.52.68-77.52.68-18.8-2.82-23.36-11.18c0 0-3.84-4.7-4.4-13.2-.4-6.13-1.31-34.78 3.98-58.1s11.57-37.72 13.88-42.82c2.32-5.12 6.81-11.13 13.24-14.06 5.21-2.39 64.74-27.21 98.81-32.33"/><path fill="#aa0c31" d="M57.95 34.79S30.86 56.52 21.16 99.17s16.03 70.18 28.89 77.63 60.25 29.1 110.12-19.19 30.25-103.36 19.2-117.8c-11.08-14.44-28.45-29.72-53.95-29.94S71.04 23.95 57.96 34.79"/><path fill="#e51636" d="M55.76 31.28S28.68 53.01 18.97 95.66C9.27 138.3 35 165.84 47.86 173.29s60.25 29.1 110.13-19.19 30.23-103.36 19.18-117.8-28.43-29.72-53.94-29.95c-25.5-.22-54.39 14.1-67.47 24.93"/><path fill="#4f4c4d" d="m46.09 72.74 26.57-6.26s-.18-21.32 21-26.23c0 0 9.25-2.55 13.08 1.69 0 0 2.82 11.84-10.72 17.43s-22 6.71-22 6.71l-2.26 27.99 3.6 3.05 18.63-3.22s13.31-1.97 15.74 2.03c0 0 5.25 14.05-6.1 25.56 0 0-5.24 5.08-13.54 6.94s-12.86.5-14.73-.51c-1.85-1.02-9.47-6.94-7.27-24.54l-3.55-2.77-30.3 5.47s-6.6 22.86 6.6 44.52c0 0 13.53 25.56 48.06 24.37s61.11-34.2 66.52-58.73c4.19-18.93 2.38-37.24-18.77-50.95 0 0 17.76-19.63.66-44.34 0 0-13.02-23.7-49.58-11.68 0 0-18.79 7.45-29.62 22S43.7 56.16 42.53 69.36z"/><path fill="#a7a5a6" d="M68.73 62.99s-.12-15.85 12.53-23.3c12.64-7.44 23.46-4.29 24.6 1.8 0 0 4.28 14-17.84 20.54l-14.89 3.61-2.7 27.76 19.85-3.16s17.38-3.62 18.74 8.13c1.35 11.73-1.59 26.85-24.83 29.78-23.24 2.94-20.76-24.82-20.54-28.66l-30.3 5.48s-9.47 34.7 17.95 58.05c27.41 23.35 76.5 3.39 94.1-32.33C163 95 152.85 71.3 131.7 63c0 0 18.28-15.9 6.93-40.11 0 0-13.72-26.86-48.57-15.95 0 0-46.63 13.32-48.42 61.99z"/><path fill="#fff" d="M66.62 61.36s-.68-13.43 12.5-22.39c13.2-8.95 29.56-5.36 28.2 4.26s-3.41 17.24-34.57 23.28l-1.58 24.84 21.14-3.13s18.88-4.03 19.56 11.86-7.5 27.98-26.83 30-25.24-11.64-24.1-28.2l-27.51 5.14s-9.1 35.36 21.36 55.96c30.47 20.59 64.35-5.37 72.32-12.76 7.95-7.39 27.05-29.32 25.23-57.07 0 0-.22-21.05-23.87-29.55 0 0 14.55-12.1 11.14-30.22S118.69 1.82 92.09 8.76 43.43 43.68 42.06 67.63z"/></svg>